# xmcd CD database file
#
# Track frame offsets:
#	150
#	11335
#	26035
#	42375
#	58585
#	70855
#
# Disc length: 1122 seconds
#
# Revision: 0
# Processed by: cddbd v1.5.2PL0 Copyright (c) Steve Scherf et al.
# Submitted via: CDex 1.70beta2
#
DISCID=48046006
DTITLE=Janie Frickie - Heart of a Woman
DYEAR=1998
DGENRE=Country
TTITLE0=Down To My Last Broken Heart
TTITLE1=Lets Stop Talkin About It
TTITLE2=It Aint Easy Bein Easy
TTITLE3=Tell Me A Lie
TTITLE4=She's Single Again
TTITLE5=When I Fall In Love
EXTD=YEAR: 1998
EXTT0=
EXTT1=
EXTT2=
EXTT3=
EXTT4=
EXTT5=
PLAYORDER=
